<svg width="512" height="512" version="1.1" xmlns="http://www.w3.org/2000/svg" desc="Created with imagetracer.js version 1.2.6" ><path fill="rgb(0,0,0)" stroke="rgb(0,0,0)" stroke-width="1" opacity="0.7803921568627451" d="M 113.5 72 L 131 72.5 L 113.5 73 L 113.5 72 Z " /><path fill="rgb(0,0,0)" stroke="rgb(0,0,0)" stroke-width="1" opacity="0.7803921568627451" d="M 380.5 72 L 399 72.5 L 380.5 73 L 380.5 72 Z " /><path fill="rgb(0,0,0)" stroke="rgb(0,0,0)" stroke-width="1" opacity="0.7803921568627451" d="M 96.5 73 L 101 73.5 L 96.5 74 L 96.5 73 Z " /><path fill="rgb(0,0,0)" stroke="rgb(0,0,0)" stroke-width="1" opacity="0.7803921568627451" d="M 141.5 73 L 147 73.5 L 141.5 74 L 141.5 73 Z " /><path fill="rgb(0,0,0)" stroke="rgb(0,0,0)" stroke-width="1" opacity="0.7803921568627451" d="M 366.5 73 L 371 73.5 L 366.5 74 L 366.5 73 Z " /><path fill="rgb(0,0,0)" stroke="rgb(0,0,0)" stroke-width="1" opacity="0.7803921568627451" d="M 410.5 73 L 416 73.5 L 410.5 74 L 410.5 73 Z " /><path fill="rgb(0,0,0)" stroke="rgb(0,0,0)" stroke-width="1" opacity="0.7803921568627451" d="M 86.5 74 L 91 74.5 L 86.5 75 L 86.5 74 Z " /><path fill="rgb(0,0,0)" stroke="rgb(0,0,0)" stroke-width="1" opacity="0.7803921568627451" d="M 152.5 74 L 156 74.5 L 152.5 75 L 152.5 74 Z " /><path fill="rgb(0,0,0)" stroke="rgb(0,0,0)" stroke-width="1" opacity="0.7803921568627451" d="M 356.5 74 L 360 74.5 L 356.5 75 L 356.5 74 Z " /><path fill="rgb(0,0,0)" stroke="rgb(0,0,0)" stroke-width="1" opacity="0.7803921568627451" d="M 421.5 74 L 426 74.5 L 421.5 75 L 421.5 74 Z " /><path fill="rgb(0,0,0)" stroke="rgb(0,0,0)" stroke-width="1" opacity="0.7803921568627451" d="M 80.5 75 L 83 75.5 L 80.5 76 L 80.5 75 Z " /><path fill="rgb(0,0,0)" stroke="rgb(0,0,0)" stroke-width="1" opacity="0.7803921568627451" d="M 159.5 75 L 162 75.5 L 159.5 76 L 159.5 75 Z " /><path fill="rgb(0,0,0)" stroke="rgb(0,0,0)" stroke-width="1" opacity="0.7803921568627451" d="M 350.5 75 L 353 75.5 L 350.5 76 L 350.5 75 Z " /><path fill="rgb(0,0,0)" stroke="rgb(0,0,0)" stroke-width="1" opacity="0.7803921568627451" d="M 429.5 75 L 432 75.5 L 429.5 76 L 429.5 75 Z " /><path fill="rgb(0,0,0)" stroke="rgb(0,0,0)" stroke-width="1" opacity="0.7803921568627451" d="M 73.5 76 L 76 76.5 L 73.5 77 L 73.5 76 Z " /><path fill="rgb(0,0,0)" stroke="rgb(0,0,0)" stroke-width="1" opacity="0.7803921568627451" d="M 165.5 76 L 168 76.5 L 165.5 77 L 165.5 76 Z " /><path fill="rgb(0,0,0)" stroke="rgb(0,0,0)" stroke-width="1" opacity="0.7803921568627451" d="M 435.5 76 L 438 76.5 L 435.5 77 L 435.5 76 Z " /><path fill="rgb(0,0,0)" stroke="rgb(0,0,0)" stroke-width="1" opacity="0.7803921568627451" d="M 67.5 77 L 70 77.5 L 67.5 78 L 67.5 77 Z " /><path fill="rgb(0,0,0)" stroke="rgb(0,0,0)" stroke-width="1" opacity="0.7803921568627451" d="M 339.5 77 L 342 77.5 L 339.5 78 L 339.5 77 Z " /><path fill="rgb(0,0,0)" stroke="rgb(0,0,0)" stroke-width="1" opacity="0.7803921568627451" d="M 462.5 82 L 467 85.5 L 463.5 83 L 462.5 82 Z " /><path fill="rgb(0,0,0)" stroke="rgb(0,0,0)" stroke-width="1" opacity="0.7803921568627451" d="M 43.5 89 L 44 102.5 L 43 102.5 L 43.5 89 Z " /><path fill="rgb(0,0,0)" stroke="rgb(0,0,0)" stroke-width="1" opacity="0.7803921568627451" d="M 115.5 92 L 128 92.5 L 115.5 93 L 115.5 92 Z " /><path fill="rgb(0,0,0)" stroke="rgb(0,0,0)" stroke-width="1" opacity="0.7803921568627451" d="M 383.5 92 L 396 92.5 L 383.5 93 L 383.5 92 Z " /><path fill="rgb(0,0,0)" stroke="rgb(0,0,0)" stroke-width="1" opacity="0.7803921568627451" d="M 98.5 93 L 104 93.5 L 98.5 94 L 98.5 93 Z " /><path fill="rgb(0,0,0)" stroke="rgb(0,0,0)" stroke-width="1" opacity="0.7803921568627451" d="M 139.5 93 L 144 93.5 L 139.5 94 L 139.5 93 Z " /><path fill="rgb(0,0,0)" stroke="rgb(0,0,0)" stroke-width="1" opacity="0.7803921568627451" d="M 368.5 93 L 373 93.5 L 368.5 94 L 368.5 93 Z " /><path fill="rgb(0,0,0)" stroke="rgb(0,0,0)" stroke-width="1" opacity="0.7803921568627451" d="M 408.5 93 L 414 93.5 L 408.5 94 L 408.5 93 Z " /><path fill="rgb(0,0,0)" stroke="rgb(0,0,0)" stroke-width="1" opacity="0.7803921568627451" d="M 88.5 94 L 92 94.5 L 88.5 95 L 88.5 94 Z " /><path fill="rgb(0,0,0)" stroke="rgb(0,0,0)" stroke-width="1" opacity="0.7803921568627451" d="M 149.5 94 L 153 94.5 L 149.5 95 L 149.5 94 Z " /><path fill="rgb(0,0,0)" stroke="rgb(0,0,0)" stroke-width="1" opacity="0.7803921568627451" d="M 219.5 94 L 220.5 96 L 219.5 94 Z " /><path fill="rgb(0,0,0)" stroke="rgb(0,0,0)" stroke-width="1" opacity="0.7803921568627451" d="M 359.5 94 L 363 94.5 L 359.5 95 L 359.5 94 Z " /><path fill="rgb(0,0,0)" stroke="rgb(0,0,0)" stroke-width="1" opacity="0.7803921568627451" d="M 419.5 94 L 423 94.5 L 419.5 95 L 419.5 94 Z " /><path fill="rgb(0,0,0)" stroke="rgb(0,0,0)" stroke-width="1" opacity="0.7803921568627451" d="M 81.5 95 L 85 95.5 L 81.5 96 L 81.5 95 Z " /><path fill="rgb(0,0,0)" stroke="rgb(0,0,0)" stroke-width="1" opacity="0.7803921568627451" d="M 156.5 95 L 159 95.5 L 156.5 96 L 156.5 95 Z " /><path fill="rgb(0,0,0)" stroke="rgb(0,0,0)" stroke-width="1" opacity="0.7803921568627451" d="M 353.5 95 L 356 95.5 L 353.5 96 L 353.5 95 Z " /><path fill="rgb(0,0,0)" stroke="rgb(0,0,0)" stroke-width="1" opacity="0.7803921568627451" d="M 427.5 95 L 430 95.5 L 427.5 96 L 427.5 95 Z " /><path fill="rgb(0,0,0)" stroke="rgb(0,0,0)" stroke-width="1" opacity="0.7803921568627451" d="M 75.5 96 L 78 96.5 L 75.5 97 L 75.5 96 Z " /><path fill="rgb(0,0,0)" stroke="rgb(0,0,0)" stroke-width="1" opacity="0.7803921568627451" d="M 162.5 96 L 165 96.5 L 162.5 97 L 162.5 96 Z " /><path fill="rgb(0,0,0)" stroke="rgb(0,0,0)" stroke-width="1" opacity="0.7803921568627451" d="M 434.5 96 L 437 96.5 L 434.5 97 L 434.5 96 Z " /><path fill="rgb(0,0,0)" stroke="rgb(0,0,0)" stroke-width="1" opacity="0.7803921568627451" d="M 439.5 97 L 442 97.5 L 439.5 98 L 439.5 97 Z " /><path fill="rgb(0,0,0)" stroke="rgb(0,0,0)" stroke-width="1" opacity="0.7803921568627451" d="M 226.5 98 L 227.5 100 L 226.5 98 Z " /><path fill="rgb(0,0,0)" stroke="rgb(0,0,0)" stroke-width="1" opacity="0.7803921568627451" d="M 285.5 98 L 284.5 100 L 285.5 98 Z " /><path fill="rgb(0,0,0)" stroke="rgb(0,0,0)" stroke-width="1" opacity="0.7803921568627451" d="M 444.5 98 L 447 98.5 L 444.5 99 L 444.5 98 Z " /><path fill="rgb(0,0,0)" stroke="rgb(0,0,0)" stroke-width="1" opacity="0.7803921568627451" d="M 448.5 99 L 449 361 L 446 360.5 L 448 360 L 448.5 99 Z " /><path fill="rgb(0,0,0)" stroke="rgb(0,0,0)" stroke-width="1" opacity="0.7803921568627451" d="M 229.5 100 L 230.5 102 L 229.5 100 Z " /><path fill="rgb(0,0,0)" stroke="rgb(0,0,0)" stroke-width="1" opacity="0.7803921568627451" d="M 282.5 100 L 281.5 102 L 282.5 100 Z " /><path fill="rgb(0,0,0)" stroke="rgb(0,0,0)" stroke-width="1" opacity="0.7803921568627451" d="M 232.5 102 L 233.5 104 L 232.5 102 Z " /><path fill="rgb(0,0,0)" stroke="rgb(0,0,0)" stroke-width="1" opacity="0.7803921568627451" d="M 279.5 102 L 278.5 104 L 279.5 102 Z " /><path fill="rgb(0,0,0)" stroke="rgb(0,0,0)" stroke-width="1" opacity="0.7803921568627451" d="M 503.5 103 L 507 104.5 L 505.5 104 Q 502.5 104.5 503.5 103 Z " /><path fill="rgb(0,0,0)" stroke="rgb(0,0,0)" stroke-width="1" opacity="0.7803921568627451" d="M 235.5 104 L 236.5 106 L 235.5 104 Z " /><path fill="rgb(0,0,0)" stroke="rgb(0,0,0)" stroke-width="1" opacity="0.7803921568627451" d="M 276.5 104 L 275.5 106 L 276.5 104 Z " /><path fill="rgb(0,0,0)" stroke="rgb(0,0,0)" stroke-width="1" opacity="0.7803921568627451" d="M 3.5 105 L 2.5 107 L 3.5 105 Z " /><path fill="rgb(0,0,0)" stroke="rgb(0,0,0)" stroke-width="1" opacity="0.7803921568627451" d="M 508.5 105 L 509.5 107 L 508.5 105 Z " /><path fill="rgb(0,0,0)" stroke="rgb(0,0,0)" stroke-width="1" opacity="0.7803921568627451" d="M 239.5 107 L 240.5 109 L 239.5 107 Z " /><path fill="rgb(0,0,0)" stroke="rgb(0,0,0)" stroke-width="1" opacity="0.7803921568627451" d="M 272.5 107 L 271.5 109 L 272.5 107 Z " /><path fill="rgb(0,0,0)" stroke="rgb(0,0,0)" stroke-width="1" opacity="0.7803921568627451" d="M 268.5 110 L 265.5 114 L 268.5 110 Z " /><path fill="rgb(0,0,0)" stroke="rgb(0,0,0)" stroke-width="1" opacity="0.7803921568627451" d="M 244.5 111 L 246.5 114 L 244.5 111 Z " /><path fill="rgb(0,0,0)" stroke="rgb(0,0,0)" stroke-width="1" opacity="0.7803921568627451" d="M 211.5 113 L 212.5 115 L 211.5 113 Z " /><path fill="rgb(0,0,0)" stroke="rgb(0,0,0)" stroke-width="1" opacity="0.7803921568627451" d="M 261.5 116 L 256.5 122 L 255 121.5 L 261.5 116 Z " /><path fill="rgb(0,0,0)" stroke="rgb(0,0,0)" stroke-width="1" opacity="0.7803921568627451" d="M 219.5 118 L 220.5 120 L 219.5 118 Z " /><path fill="rgb(0,0,0)" stroke="rgb(0,0,0)" stroke-width="1" opacity="0.7803921568627451" d="M 222.5 120 L 223.5 122 L 222.5 120 Z " /><path fill="rgb(0,0,0)" stroke="rgb(0,0,0)" stroke-width="1" opacity="0.7803921568627451" d="M 287.5 121 L 285.5 124 L 287.5 121 Z " /><path fill="rgb(0,0,0)" stroke="rgb(0,0,0)" stroke-width="1" opacity="0.7803921568627451" d="M 20.5 122 L 43.5 122 L 44 122.5 L 44 371.5 L 43 371.5 L 43 123.5 L 42.5 123 L 20 123 L 19.5 414 L 19 123.5 L 20.5 122 Z " /><path fill="rgb(0,0,0)" stroke="rgb(0,0,0)" stroke-width="1" opacity="0.7803921568627451" d="M 225.5 122 L 227.5 125 L 225.5 122 Z " /><path fill="rgb(0,0,0)" stroke="rgb(0,0,0)" stroke-width="1" opacity="0.7803921568627451" d="M 469.5 122 L 491.5 122 L 493 123.5 L 492.5 375 L 492 123 L 469.5 123 L 469 123.5 L 469 373.5 L 468 373.5 L 468 123.5 L 469.5 122 Z " /><path fill="rgb(0,0,0)" stroke="rgb(0,0,0)" stroke-width="1" opacity="0.7803921568627451" d="M 282.5 125 L 281.5 127 L 282.5 125 Z " /><path fill="rgb(0,0,0)" stroke="rgb(0,0,0)" stroke-width="1" opacity="0.7803921568627451" d="M 230.5 126 L 232.5 129 L 230.5 126 Z " /><path fill="rgb(0,0,0)" stroke="rgb(0,0,0)" stroke-width="1" opacity="0.7803921568627451" d="M 277.5 129 L 266.5 141 L 277.5 129 Z " /><path fill="rgb(0,0,0)" stroke="rgb(0,0,0)" stroke-width="1" opacity="0.7803921568627451" d="M 237.5 132 L 243.5 139 L 237.5 132 Z " /><path fill="rgb(0,0,0)" stroke="rgb(0,0,0)" stroke-width="1" opacity="0.7803921568627451" d="M 265.5 142 L 266 387.5 L 265 387.5 L 265.5 142 Z " /><path fill="rgb(0,0,0)" stroke="rgb(0,0,0)" stroke-width="1" opacity="0.7803921568627451" d="M 94.5 357 L 110 357.5 L 94.5 358 L 94.5 357 Z " /><path fill="rgb(0,0,0)" stroke="rgb(0,0,0)" stroke-width="1" opacity="0.7803921568627451" d="M 124.5 357 L 140 357.5 L 124.5 358 L 124.5 357 Z " /><path fill="rgb(0,0,0)" stroke="rgb(0,0,0)" stroke-width="1" opacity="0.7803921568627451" d="M 370.5 357 L 384 357.5 L 370.5 358 L 370.5 357 Z " /><path fill="rgb(0,0,0)" stroke="rgb(0,0,0)" stroke-width="1" opacity="0.7803921568627451" d="M 405.5 357 L 419 357.5 L 405.5 358 L 405.5 357 Z " /><path fill="rgb(0,0,0)" stroke="rgb(0,0,0)" stroke-width="1" opacity="0.7803921568627451" d="M 81.5 358 L 86 358.5 L 81.5 359 L 81.5 358 Z " /><path fill="rgb(0,0,0)" stroke="rgb(0,0,0)" stroke-width="1" opacity="0.7803921568627451" d="M 146.5 358 L 150 358.5 L 146.5 359 L 146.5 358 Z " /><path fill="rgb(0,0,0)" stroke="rgb(0,0,0)" stroke-width="1" opacity="0.7803921568627451" d="M 361.5 358 L 365 358.5 L 361.5 359 L 361.5 358 Z " /><path fill="rgb(0,0,0)" stroke="rgb(0,0,0)" stroke-width="1" opacity="0.7803921568627451" d="M 426.5 358 L 431 358.5 L 426.5 359 L 426.5 358 Z " /><path fill="rgb(0,0,0)" stroke="rgb(0,0,0)" stroke-width="1" opacity="0.7803921568627451" d="M 71.5 359 L 76 359.5 L 71.5 360 L 71.5 359 Z " /><path fill="rgb(0,0,0)" stroke="rgb(0,0,0)" stroke-width="1" opacity="0.7803921568627451" d="M 155.5 359 L 160 359.5 L 155.5 360 L 155.5 359 Z " /><path fill="rgb(0,0,0)" stroke="rgb(0,0,0)" stroke-width="1" opacity="0.7803921568627451" d="M 351.5 359 L 356 359.5 L 351.5 360 L 351.5 359 Z " /><path fill="rgb(0,0,0)" stroke="rgb(0,0,0)" stroke-width="1" opacity="0.7803921568627451" d="M 436.5 359 L 441 359.5 L 436.5 360 L 436.5 359 Z " /><path fill="rgb(0,0,0)" stroke="rgb(0,0,0)" stroke-width="1" opacity="0.7803921568627451" d="M 164.5 360 L 167 360.5 L 164.5 361 L 164.5 360 Z " /><path fill="rgb(0,0,0)" stroke="rgb(0,0,0)" stroke-width="1" opacity="0.7803921568627451" d="M 170.5 361 L 173 361.5 L 170.5 362 L 170.5 361 Z " /><path fill="rgb(0,0,0)" stroke="rgb(0,0,0)" stroke-width="1" opacity="0.7803921568627451" d="M 339.5 361 L 342 361.5 L 339.5 362 L 339.5 361 Z " /><path fill="rgb(0,0,0)" stroke="rgb(0,0,0)" stroke-width="1" opacity="0.7803921568627451" d="M 333.5 362 L 336 362.5 L 333.5 363 L 333.5 362 Z " /><path fill="rgb(0,0,0)" stroke="rgb(0,0,0)" stroke-width="1" opacity="0.7803921568627451" d="M 467.5 375 L 468 376.5 L 464 379.5 L 467.5 375 Z " /><path fill="rgb(0,0,0)" stroke="rgb(0,0,0)" stroke-width="1" opacity="0.7803921568627451" d="M 107.5 376 L 128 376.5 L 107.5 377 L 107.5 376 Z " /><path fill="rgb(0,0,0)" stroke="rgb(0,0,0)" stroke-width="1" opacity="0.7803921568627451" d="M 384.5 376 L 407 376.5 L 384.5 377 L 384.5 376 Z " /><path fill="rgb(0,0,0)" stroke="rgb(0,0,0)" stroke-width="1" opacity="0.7803921568627451" d="M 87.5 377 L 95 377.5 L 87.5 378 L 87.5 377 Z " /><path fill="rgb(0,0,0)" stroke="rgb(0,0,0)" stroke-width="1" opacity="0.7803921568627451" d="M 141.5 377 L 145 377.5 L 141.5 378 L 141.5 377 Z " /><path fill="rgb(0,0,0)" stroke="rgb(0,0,0)" stroke-width="1" opacity="0.7803921568627451" d="M 366.5 377 L 371 377.5 L 366.5 378 L 366.5 377 Z " /><path fill="rgb(0,0,0)" stroke="rgb(0,0,0)" stroke-width="1" opacity="0.7803921568627451" d="M 418.5 377 L 426 377.5 L 418.5 378 L 418.5 377 Z " /><path fill="rgb(0,0,0)" stroke="rgb(0,0,0)" stroke-width="1" opacity="0.7803921568627451" d="M 46.5 378 L 47.5 380 L 46.5 378 Z " /><path fill="rgb(0,0,0)" stroke="rgb(0,0,0)" stroke-width="1" opacity="0.7803921568627451" d="M 77.5 378 L 82 378.5 L 77.5 379 L 77.5 378 Z " /><path fill="rgb(0,0,0)" stroke="rgb(0,0,0)" stroke-width="1" opacity="0.7803921568627451" d="M 150.5 378 L 155 378.5 L 150.5 379 L 150.5 378 Z " /><path fill="rgb(0,0,0)" stroke="rgb(0,0,0)" stroke-width="1" opacity="0.7803921568627451" d="M 357.5 378 L 362 378.5 L 357.5 379 L 357.5 378 Z " /><path fill="rgb(0,0,0)" stroke="rgb(0,0,0)" stroke-width="1" opacity="0.7803921568627451" d="M 431.5 378 L 436 378.5 L 431.5 379 L 431.5 378 Z " /><path fill="rgb(0,0,0)" stroke="rgb(0,0,0)" stroke-width="1" opacity="0.7803921568627451" d="M 68.5 379 L 72 379.5 L 68.5 380 L 68.5 379 Z " /><path fill="rgb(0,0,0)" stroke="rgb(0,0,0)" stroke-width="1" opacity="0.7803921568627451" d="M 159.5 379 L 162 379.5 L 159.5 380 L 159.5 379 Z " /><path fill="rgb(0,0,0)" stroke="rgb(0,0,0)" stroke-width="1" opacity="0.7803921568627451" d="M 349.5 379 L 352 379.5 L 349.5 380 L 349.5 379 Z " /><path fill="rgb(0,0,0)" stroke="rgb(0,0,0)" stroke-width="1" opacity="0.7803921568627451" d="M 442.5 379 L 445 379.5 L 442.5 380 L 442.5 379 Z " /><path fill="rgb(0,0,0)" stroke="rgb(0,0,0)" stroke-width="1" opacity="0.7803921568627451" d="M 60.5 380 L 64 380.5 L 60.5 381 L 60.5 380 Z " /><path fill="rgb(0,0,0)" stroke="rgb(0,0,0)" stroke-width="1" opacity="0.7803921568627451" d="M 344.5 380 L 347 380.5 L 344.5 381 L 344.5 380 Z " /><path fill="rgb(0,0,0)" stroke="rgb(0,0,0)" stroke-width="1" opacity="0.7803921568627451" d="M 449.5 380 L 453 380.5 L 449.5 381 L 449.5 380 Z " /><path fill="rgb(0,0,0)" stroke="rgb(0,0,0)" stroke-width="1" opacity="0.7803921568627451" d="M 52.5 381 L 56 381.5 L 52.5 382 L 52.5 381 Z " /><path fill="rgb(0,0,0)" stroke="rgb(0,0,0)" stroke-width="1" opacity="0.7803921568627451" d="M 339.5 381 L 342 381.5 L 339.5 382 L 339.5 381 Z " /><path fill="rgb(0,0,0)" stroke="rgb(0,0,0)" stroke-width="1" opacity="0.7803921568627451" d="M 175.5 382 L 178 382.5 L 175.5 383 L 175.5 382 Z " /><path fill="rgb(0,0,0)" stroke="rgb(0,0,0)" stroke-width="1" opacity="0.7803921568627451" d="M 239.5 384 L 240.5 386 L 239.5 384 Z " /><path fill="rgb(0,0,0)" stroke="rgb(0,0,0)" stroke-width="1" opacity="0.7803921568627451" d="M 134.5 387 L 147 387.5 L 134.5 388 L 134.5 387 Z " /><path fill="rgb(0,0,0)" stroke="rgb(0,0,0)" stroke-width="1" opacity="0.7803921568627451" d="M 169.5 387 L 182 387.5 L 169.5 388 L 169.5 387 Z " /><path fill="rgb(0,0,0)" stroke="rgb(0,0,0)" stroke-width="1" opacity="0.7803921568627451" d="M 244.5 387 L 245.5 389 L 244.5 387 Z " /><path fill="rgb(0,0,0)" stroke="rgb(0,0,0)" stroke-width="1" opacity="0.7803921568627451" d="M 330.5 387 L 342 387.5 L 330.5 388 L 330.5 387 Z " /><path fill="rgb(0,0,0)" stroke="rgb(0,0,0)" stroke-width="1" opacity="0.7803921568627451" d="M 366.5 387 L 379 387.5 L 366.5 388 L 366.5 387 Z " /><path fill="rgb(0,0,0)" stroke="rgb(0,0,0)" stroke-width="1" opacity="0.7803921568627451" d="M 123.5 388 L 128 388.5 L 123.5 389 L 123.5 388 Z " /><path fill="rgb(0,0,0)" stroke="rgb(0,0,0)" stroke-width="1" opacity="0.7803921568627451" d="M 187.5 388 L 193 388.5 L 187.5 389 L 187.5 388 Z " /><path fill="rgb(0,0,0)" stroke="rgb(0,0,0)" stroke-width="1" opacity="0.7803921568627451" d="M 198 388 L 201 389.5 L 198 390 L 198 388 Z " /><path fill="rgb(0,0,0)" stroke="rgb(0,0,0)" stroke-width="1" opacity="0.7803921568627451" d="M 312.5 388 L 313 390 L 310 389.5 L 312.5 388 Z " /><path fill="rgb(0,0,0)" stroke="rgb(0,0,0)" stroke-width="1" opacity="0.7803921568627451" d="M 319.5 388 L 324 388.5 L 319.5 389 L 319.5 388 Z " /><path fill="rgb(0,0,0)" stroke="rgb(0,0,0)" stroke-width="1" opacity="0.7803921568627451" d="M 384.5 388 L 389 388.5 L 384.5 389 L 384.5 388 Z " /><path fill="rgb(0,0,0)" stroke="rgb(0,0,0)" stroke-width="1" opacity="0.7803921568627451" d="M 113.5 389 L 118 389.5 L 113.5 390 L 113.5 389 Z " /><path fill="rgb(0,0,0)" stroke="rgb(0,0,0)" stroke-width="1" opacity="0.7803921568627451" d="M 394.5 389 L 399 389.5 L 394.5 390 L 394.5 389 Z " /><path fill="rgb(0,0,0)" stroke="rgb(0,0,0)" stroke-width="1" opacity="0.7803921568627451" d="M 106.5 390 L 109 390.5 L 106.5 391 L 106.5 390 Z " /><path fill="rgb(0,0,0)" stroke="rgb(0,0,0)" stroke-width="1" opacity="0.7803921568627451" d="M 403.5 390 L 406 390.5 L 403.5 391 L 403.5 390 Z " /><path fill="rgb(0,0,0)" stroke="rgb(0,0,0)" stroke-width="1" opacity="0.7803921568627451" d="M 100.5 391 L 103 391.5 L 100.5 392 L 100.5 391 Z " /><path fill="rgb(0,0,0)" stroke="rgb(0,0,0)" stroke-width="1" opacity="0.7803921568627451" d="M 409.5 391 L 412 391.5 L 409.5 392 L 409.5 391 Z " /><path fill="rgb(0,0,0)" stroke="rgb(0,0,0)" stroke-width="1" opacity="0.7803921568627451" d="M 94.5 392 L 97 392.5 L 94.5 393 L 94.5 392 Z " /><path fill="rgb(0,0,0)" stroke="rgb(0,0,0)" stroke-width="1" opacity="0.7803921568627451" d="M 415.5 392 L 418 392.5 L 415.5 393 L 415.5 392 Z " /><path fill="rgb(0,0,0)" stroke="rgb(0,0,0)" stroke-width="1" opacity="0.7803921568627451" d="M 88.5 393 L 91 393.5 L 88.5 394 L 88.5 393 Z " /><path fill="rgb(0,0,0)" stroke="rgb(0,0,0)" stroke-width="1" opacity="0.7803921568627451" d="M 421.5 393 L 424 393.5 L 421.5 394 L 421.5 393 Z " /><path fill="rgb(0,0,0)" stroke="rgb(0,0,0)" stroke-width="1" opacity="0.7803921568627451" d="M 439.5 397 L 442 397.5 L 439.5 398 L 439.5 397 Z " /><path fill="rgb(0,0,0)" stroke="rgb(0,0,0)" stroke-width="1" opacity="0.7803921568627451" d="M 155.5 406 L 162 406.5 L 155.5 407 L 155.5 406 Z " /><path fill="rgb(0,0,0)" stroke="rgb(0,0,0)" stroke-width="1" opacity="0.7803921568627451" d="M 343.5 406 L 363 406.5 L 343.5 407 L 343.5 406 Z " /><path fill="rgb(0,0,0)" stroke="rgb(0,0,0)" stroke-width="1" opacity="0.7803921568627451" d="M 133.5 407 L 141 407.5 L 133.5 408 L 133.5 407 Z " /><path fill="rgb(0,0,0)" stroke="rgb(0,0,0)" stroke-width="1" opacity="0.7803921568627451" d="M 181.5 407 L 187 407.5 L 181.5 408 L 181.5 407 Z " /><path fill="rgb(0,0,0)" stroke="rgb(0,0,0)" stroke-width="1" opacity="0.7803921568627451" d="M 323.5 407 L 329 407.5 L 323.5 408 L 323.5 407 Z " /><path fill="rgb(0,0,0)" stroke="rgb(0,0,0)" stroke-width="1" opacity="0.7803921568627451" d="M 376.5 407 L 382 407.5 L 376.5 408 L 376.5 407 Z " /><path fill="rgb(0,0,0)" stroke="rgb(0,0,0)" stroke-width="1" opacity="0.7803921568627451" d="M 122.5 408 L 127 408.5 L 122.5 409 L 122.5 408 Z " /><path fill="rgb(0,0,0)" stroke="rgb(0,0,0)" stroke-width="1" opacity="0.7803921568627451" d="M 193.5 408 L 199 408.5 L 193.5 409 L 193.5 408 Z " /><path fill="rgb(0,0,0)" stroke="rgb(0,0,0)" stroke-width="1" opacity="0.7803921568627451" d="M 312.5 408 L 318 408.5 L 312.5 409 L 312.5 408 Z " /><path fill="rgb(0,0,0)" stroke="rgb(0,0,0)" stroke-width="1" opacity="0.7803921568627451" d="M 387.5 408 L 393 408.5 L 387.5 409 L 387.5 408 Z " /><path fill="rgb(0,0,0)" stroke="rgb(0,0,0)" stroke-width="1" opacity="0.7803921568627451" d="M 113.5 409 L 117 409.5 L 113.5 410 L 113.5 409 Z " /><path fill="rgb(0,0,0)" stroke="rgb(0,0,0)" stroke-width="1" opacity="0.7803921568627451" d="M 204.5 409 L 208 409.5 L 204.5 410 L 204.5 409 Z " /><path fill="rgb(0,0,0)" stroke="rgb(0,0,0)" stroke-width="1" opacity="0.7803921568627451" d="M 304.5 409 L 307 409.5 L 304.5 410 L 304.5 409 Z " /><path fill="rgb(0,0,0)" stroke="rgb(0,0,0)" stroke-width="1" opacity="0.7803921568627451" d="M 397.5 409 L 401 409.5 L 397.5 410 L 397.5 409 Z " /><path fill="rgb(0,0,0)" stroke="rgb(0,0,0)" stroke-width="1" opacity="0.7803921568627451" d="M 106.5 410 L 110 410.5 L 106.5 411 L 106.5 410 Z " /><path fill="rgb(0,0,0)" stroke="rgb(0,0,0)" stroke-width="1" opacity="0.7803921568627451" d="M 211.5 410 L 214 410.5 L 211.5 411 L 211.5 410 Z " /><path fill="rgb(0,0,0)" stroke="rgb(0,0,0)" stroke-width="1" opacity="0.7803921568627451" d="M 297.5 410 L 301 410.5 L 297.5 411 L 297.5 410 Z " /><path fill="rgb(0,0,0)" stroke="rgb(0,0,0)" stroke-width="1" opacity="0.7803921568627451" d="M 404.5 410 L 408 410.5 L 404.5 411 L 404.5 410 Z " /><path fill="rgb(0,0,0)" stroke="rgb(0,0,0)" stroke-width="1" opacity="0.7803921568627451" d="M 99.5 411 L 103 411.5 L 99.5 412 L 99.5 411 Z " /><path fill="rgb(0,0,0)" stroke="rgb(0,0,0)" stroke-width="1" opacity="0.7803921568627451" d="M 218.5 411 L 221 411.5 L 218.5 412 L 218.5 411 Z " /><path fill="rgb(0,0,0)" stroke="rgb(0,0,0)" stroke-width="1" opacity="0.7803921568627451" d="M 291.5 411 L 294 411.5 L 291.5 412 L 291.5 411 Z " /><path fill="rgb(0,0,0)" stroke="rgb(0,0,0)" stroke-width="1" opacity="0.7803921568627451" d="M 411.5 411 L 414 411.5 L 411.5 412 L 411.5 411 Z " /><path fill="rgb(0,0,0)" stroke="rgb(0,0,0)" stroke-width="1" opacity="0.7803921568627451" d="M 94.5 412 L 97 412.5 L 94.5 413 L 94.5 412 Z " /><path fill="rgb(0,0,0)" stroke="rgb(0,0,0)" stroke-width="1" opacity="0.7803921568627451" d="M 224.5 412 L 228 412.5 L 224.5 413 L 224.5 412 Z " /><path fill="rgb(0,0,0)" stroke="rgb(0,0,0)" stroke-width="1" opacity="0.7803921568627451" d="M 284.5 412 L 287 412.5 L 284.5 413 L 284.5 412 Z " /><path fill="rgb(0,0,0)" stroke="rgb(0,0,0)" stroke-width="1" opacity="0.7803921568627451" d="M 89.5 413 L 92 413.5 L 89.5 414 L 89.5 413 Z " /><path fill="rgb(0,0,0)" stroke="rgb(0,0,0)" stroke-width="1" opacity="0.7803921568627451" d="M 279.5 413 L 282 413.5 L 279.5 414 L 279.5 413 Z " /><path fill="rgb(0,0,0)" stroke="rgb(0,0,0)" stroke-width="1" opacity="0.7803921568627451" d="M 427.5 414 L 430 414.5 L 427.5 415 L 427.5 414 Z " /><path fill="rgb(0,0,0)" stroke="rgb(0,0,0)" stroke-width="1" opacity="0.7803921568627451" d="M 79.5 415 L 82 415.5 L 79.5 416 L 79.5 415 Z " /><path fill="rgb(0,0,0)" stroke="rgb(0,0,0)" stroke-width="1" opacity="0.7803921568627451" d="M 239.5 415 L 242 415.5 L 239.5 416 L 239.5 415 Z " /><path fill="rgb(0,0,0)" stroke="rgb(0,0,0)" stroke-width="1" opacity="0.7803921568627451" d="M 270.5 415 L 273 415.5 L 270.5 416 L 270.5 415 Z " /><path fill="rgb(0,0,0)" stroke="rgb(0,0,0)" stroke-width="1" opacity="0.7803921568627451" d="M 248.5 417 L 251 417.5 L 248.5 418 L 248.5 417 Z " /><path fill="rgb(0,0,0)" stroke="rgb(0,0,0)" stroke-width="1" opacity="0.7803921568627451" d="M 253.5 418 L 259 418.5 L 253.5 419 L 253.5 418 Z " /><path fill="rgb(0,0,0)" stroke="rgb(0,0,0)" stroke-width="1" opacity="0.7803921568627451" d="M 0.5 430 L 1 432.5 L 0 432.5 L 0.5 430 Z " /><path fill="rgb(0,0,0)" stroke="rgb(0,0,0)" stroke-width="1" opacity="0.7803921568627451" d="M 1.5 434 L 2.5 436 L 1.5 434 Z " /><path fill="rgb(0,0,0)" stroke="rgb(0,0,0)" stroke-width="1" opacity="0.7803921568627451" d="M 4.5 437 L 5.5 439 L 4.5 437 Z " /><path fill="rgb(0,0,0)" stroke="rgb(0,0,0)" stroke-width="1" opacity="0.7803921568627451" d="M 9.5 439 L 12 439.5 L 9.5 440 L 9.5 439 Z " /><path fill="rgb(0,0,0)" stroke="rgb(0,0,0)" stroke-width="1" opacity="0.7803921568627451" d="M 500.5 439 L 504 439.5 L 500.5 440 L 500.5 439 Z " /><path fill="rgb(0,0,0)" stroke="rgb(0,0,0)" stroke-width="1" opacity="0" d="M 0 0 L 511.5 0 L 512 0.5 L 512 109.5 L 511 109.5 L 508.5 105 L 505.5 103 L 469.5 103 L 468 101.5 L 468 87.5 L 463.5 82 L 425.5 74 L 399.5 73 L 398.5 72 L 380.5 72 L 379.5 73 L 356.5 74 L 344.5 77 L 339.5 77 L 312.5 85 L 285.5 98 Q 269.3 107.8 256.5 121 L 254.5 121 Q 242.6 107.4 226.5 98 L 209.5 89 L 191.5 82 L 155.5 74 L 131.5 73 L 130.5 72 L 113.5 72 L 112.5 73 L 86.5 74 L 79.5 76 L 67.5 77 Q 60.5 80.5 50.5 81 L 44 86.5 L 43 89.5 L 43 103 L 6.5 103 L 2 106.5 L 0.5 110 L 0 0 Z " /><path fill="rgb(0,0,0)" stroke="rgb(0,0,0)" stroke-width="1" opacity="0" d="M 104.5 93 L 138.5 93 L 139.5 94 L 148.5 94 L 149.5 95 L 166.5 97 L 185.5 102 Q 222.9 114.6 246 141.5 L 245.5 388 L 216.5 373 L 182.5 363 L 159.5 359 L 140.5 358 L 139.5 357 L 94.5 357 L 93.5 358 L 81.5 358 L 80.5 359 L 63 360 L 63 99.5 L 66.5 99 L 78.5 96 L 84.5 96 L 92.5 94 L 103.5 94 L 104.5 93 Z " /><path fill="rgb(0,0,0)" stroke="rgb(0,0,0)" stroke-width="1" opacity="0" d="M 373.5 93 L 407.5 93 L 408.5 94 L 418.5 94 L 419.5 95 L 433.5 96 L 448 99 L 448 359.5 Q 447.8 360.8 441.5 360 L 440.5 359 L 419.5 358 L 418.5 357 L 370.5 357 L 360.5 359 L 351.5 359 L 316.5 366 L 288.5 376 L 266.5 388 L 266 141.5 Q 284.9 119.4 313.5 107 L 326.5 102 L 345.5 97 L 362.5 95 L 363.5 94 L 372.5 94 L 373.5 93 Z " /><path fill="rgb(0,0,0)" stroke="rgb(0,0,0)" stroke-width="1" opacity="0" d="M 20 123 L 42.5 123 L 43 123.5 L 43 371.5 L 44 375.5 L 47.5 380 L 55.5 382 L 56.5 381 L 81.5 379 L 82.5 378 L 94.5 378 L 95.5 377 L 140.5 377 L 141.5 378 L 164.5 380 L 198 388.5 L 193.5 389 L 192.5 388 L 182.5 388 L 181.5 387 L 134.5 387 L 133.5 388 L 106.5 390 L 70.5 397 L 42.5 405 L 20.5 414 L 20 123 Z " /><path fill="rgb(0,0,0)" stroke="rgb(0,0,0)" stroke-width="1" opacity="0" d="M 469 123 L 491.5 123 L 492 123.5 L 492 413.5 L 490.5 413 L 449.5 399 L 405.5 390 L 379.5 388 L 378.5 387 L 330.5 387 L 329.5 388 L 313.5 389 L 313.5 388 L 352.5 379 L 361.5 379 L 371.5 377 L 417.5 377 L 418.5 378 L 441.5 379 L 458.5 382 Q 465.1 381.1 468 376.5 L 469 373.5 L 469 123 Z " /><path fill="rgb(0,0,0)" stroke="rgb(0,0,0)" stroke-width="1" opacity="0" d="M 141.5 407 L 180.5 407 L 181.5 408 L 203.5 409 L 204.5 410 L 229.5 413 L 253.5 419 L 258.5 419 L 277.5 414 L 300.5 411 L 307.5 409 L 317.5 409 L 318.5 408 L 328.5 408 L 329.5 407 L 375.5 407 L 376.5 408 L 386.5 408 L 387.5 409 L 396.5 409 L 397.5 410 L 410.5 411 L 447.5 419 L 477.5 429 L 497.5 439 L 503.5 440 L 511 434.5 L 511.5 433 L 512 512 L 0.5 512 L 0 511.5 L 0 433.5 L 1 433.5 L 5.5 439 L 11.5 440 L 32.5 430 L 65.5 419 L 103.5 411 L 109.5 411 L 117.5 409 L 126.5 409 L 127.5 408 L 140.5 408 L 141.5 407 Z " /><path fill="rgb(0,0,0)" stroke="rgb(0,0,0)" stroke-width="1" opacity="0.996078431372549" d="M 47.5 83 L 45.5 86 L 47.5 83 Z " /><path fill="rgb(0,0,0)" stroke="rgb(0,0,0)" stroke-width="1" opacity="0.996078431372549" d="M 111.5 92 L 115 92.5 L 111.5 93 L 111.5 92 Z " /><path fill="rgb(0,0,0)" stroke="rgb(0,0,0)" stroke-width="1" opacity="0.996078431372549" d="M 128.5 92 L 132 92.5 L 128.5 93 L 128.5 92 Z " /><path fill="rgb(0,0,0)" stroke="rgb(0,0,0)" stroke-width="1" opacity="0.996078431372549" d="M 379.5 92 L 383 92.5 L 379.5 93 L 379.5 92 Z " /><path fill="rgb(0,0,0)" stroke="rgb(0,0,0)" stroke-width="1" opacity="0.996078431372549" d="M 396.5 92 L 400 92.5 L 396.5 93 L 396.5 92 Z " /><path fill="rgb(0,0,0)" stroke="rgb(0,0,0)" stroke-width="1" opacity="0.996078431372549" d="M 241.5 109 L 242.5 111 L 241.5 109 Z " /><path fill="rgb(0,0,0)" stroke="rgb(0,0,0)" stroke-width="1" opacity="0.996078431372549" d="M 270.5 109 L 269.5 111 L 270.5 109 Z " /><path fill="rgb(0,0,0)" stroke="rgb(0,0,0)" stroke-width="1" opacity="0.996078431372549" d="M 247.5 114 L 254.5 122 L 247.5 114 Z " /><path fill="rgb(0,0,0)" stroke="rgb(0,0,0)" stroke-width="1" opacity="0.996078431372549" d="M 264.5 114 L 262.5 117 L 264.5 114 Z " /><path fill="rgb(0,0,0)" stroke="rgb(0,0,0)" stroke-width="1" opacity="0.996078431372549" d="M 284.5 123 L 283.5 125 L 284.5 123 Z " /><path fill="rgb(0,0,0)" stroke="rgb(0,0,0)" stroke-width="1" opacity="0.996078431372549" d="M 228.5 124 L 229.5 126 L 228.5 124 Z " /><path fill="rgb(0,0,0)" stroke="rgb(0,0,0)" stroke-width="1" opacity="0.996078431372549" d="M 279.5 127 L 278.5 129 L 279.5 127 Z " /><path fill="rgb(0,0,0)" stroke="rgb(0,0,0)" stroke-width="1" opacity="0.996078431372549" d="M 233.5 128 L 236.5 132 L 233.5 128 Z " /><path fill="rgb(0,0,0)" stroke="rgb(0,0,0)" stroke-width="1" opacity="0.996078431372549" d="M 244.5 139 L 245.5 141 L 244.5 139 Z " /><path fill="rgb(0,0,0)" stroke="rgb(0,0,0)" stroke-width="1" opacity="0.996078431372549" d="M 110.5 357 L 113 357.5 L 110.5 358 L 110.5 357 Z " /><path fill="rgb(0,0,0)" stroke="rgb(0,0,0)" stroke-width="1" opacity="0.996078431372549" d="M 121.5 357 L 124 357.5 L 121.5 358 L 121.5 357 Z " /><path fill="rgb(0,0,0)" stroke="rgb(0,0,0)" stroke-width="1" opacity="0.996078431372549" d="M 384.5 357 L 388 357.5 L 384.5 358 L 384.5 357 Z " /><path fill="rgb(0,0,0)" stroke="rgb(0,0,0)" stroke-width="1" opacity="0.996078431372549" d="M 402.5 357 L 405 357.5 L 402.5 358 L 402.5 357 Z " /><path fill="rgb(0,0,0)" stroke="rgb(0,0,0)" stroke-width="1" opacity="0.996078431372549" d="M 246.5 367 L 247 388.5 L 246 388.5 L 246.5 367 Z " /><path fill="rgb(0,0,0)" stroke="rgb(0,0,0)" stroke-width="1" opacity="0.996078431372549" d="M 492.5 375 L 493 413.5 L 492 413.5 L 492.5 375 Z " /><path fill="rgb(0,0,0)" stroke="rgb(0,0,0)" stroke-width="1" opacity="0.996078431372549" d="M 103.5 376 L 107 376.5 L 103.5 377 L 103.5 376 Z " /><path fill="rgb(0,0,0)" stroke="rgb(0,0,0)" stroke-width="1" opacity="0.996078431372549" d="M 128.5 376 L 133 376.5 L 128.5 377 L 128.5 376 Z " /><path fill="rgb(0,0,0)" stroke="rgb(0,0,0)" stroke-width="1" opacity="0.996078431372549" d="M 379.5 376 L 384 376.5 L 379.5 377 L 379.5 376 Z " /><path fill="rgb(0,0,0)" stroke="rgb(0,0,0)" stroke-width="1" opacity="0.996078431372549" d="M 407.5 376 L 411 376.5 L 407.5 377 L 407.5 376 Z " /><path fill="rgb(0,0,0)" stroke="rgb(0,0,0)" stroke-width="1" opacity="0.996078431372549" d="M 147.5 387 L 150 387.5 L 147.5 388 L 147.5 387 Z " /><path fill="rgb(0,0,0)" stroke="rgb(0,0,0)" stroke-width="1" opacity="0.996078431372549" d="M 164.5 387 L 169 387.5 L 164.5 388 L 164.5 387 Z " /><path fill="rgb(0,0,0)" stroke="rgb(0,0,0)" stroke-width="1" opacity="0.996078431372549" d="M 342.5 387 L 346 387.5 L 342.5 388 L 342.5 387 Z " /><path fill="rgb(0,0,0)" stroke="rgb(0,0,0)" stroke-width="1" opacity="0.996078431372549" d="M 363.5 387 L 366 387.5 L 363.5 388 L 363.5 387 Z " /><path fill="rgb(0,0,0)" stroke="rgb(0,0,0)" stroke-width="1" opacity="0.996078431372549" d="M 200.5 388 L 201.5 390 L 200.5 388 Z " /><path fill="rgb(0,0,0)" stroke="rgb(0,0,0)" stroke-width="1" opacity="0.996078431372549" d="M 152.5 406 L 155 406.5 L 152.5 407 L 152.5 406 Z " /><path fill="rgb(0,0,0)" stroke="rgb(0,0,0)" stroke-width="1" opacity="0.996078431372549" d="M 162.5 406 L 167 406.5 L 162.5 407 L 162.5 406 Z " /><path fill="rgb(0,0,0)" stroke="rgb(0,0,0)" stroke-width="1" opacity="0.996078431372549" d="M 338.5 406 L 343 406.5 L 338.5 407 L 338.5 406 Z " /><path fill="rgb(0,0,0)" stroke="rgb(0,0,0)" stroke-width="1" opacity="0.996078431372549" d="M 363.5 406 L 366 406.5 L 363.5 407 L 363.5 406 Z " /><path fill="rgb(0,0,0)" stroke="rgb(0,0,0)" stroke-width="1" opacity="0.996078431372549" d="M 509.5 435 L 507.5 438 L 509.5 435 Z " /><path fill="rgb(0,0,0)" stroke="rgb(0,0,0)" stroke-width="1" opacity="1" d="M 103.5 73 L 139.5 73 L 140.5 74 L 150.5 74 L 185.5 81 Q 206.5 87 223.5 97 Q 241.5 107 254.5 122 L 256.5 122 Q 282.6 94.6 323.5 82 L 338.5 78 L 354.5 75 L 361.5 75 L 362.5 74 L 371.5 74 L 372.5 73 L 408.5 73 L 409.5 74 L 419.5 74 L 420.5 75 L 427.5 75 L 428.5 76 L 445.5 78 L 461.5 82 L 466 85.5 L 468 89.5 L 468 103 L 501.5 103 L 509 106 L 512 113.5 L 512 429.5 L 511 433.5 L 506.5 438 L 499.5 439 L 479.5 429 L 434.5 415 L 408.5 410 L 394.5 409 L 393.5 408 L 366.5 407 L 365.5 406 L 338.5 406 L 337.5 407 L 310.5 408 L 289.5 412 L 283.5 412 L 259.5 418 L 252.5 418 L 228.5 412 L 215.5 411 L 208.5 409 L 189.5 408 L 188.5 407 L 152.5 406 L 151.5 407 L 120.5 408 L 119.5 409 L 112.5 409 L 83.5 414 L 56.5 421 L 28.5 431 L 12.5 439 L 7.5 439 L 2 434.5 L 0 428.5 L 0 113.5 L 2 107.5 L 4.5 105 L 9.5 103 L 44 103 L 44 88.5 L 48.5 83 L 71.5 77 L 91.5 75 L 92.5 74 L 102.5 74 L 103.5 73 Z M 112 92 L 111 93 L 88 94 L 65 98 L 63 100 L 63 361 Q 68 359 77 360 L 78 359 L 88 359 L 89 358 L 113 358 L 114 357 Q 120 355 122 358 L 144 358 L 145 359 L 163 360 L 185 364 L 220 375 L 247 389 L 247 368 L 246 367 L 246 141 Q 223 115 188 102 L 154 94 L 133 93 L 132 92 L 112 92 Z M 380 92 L 379 93 L 367 93 L 366 94 L 353 95 L 325 102 Q 299 111 280 127 L 265 142 L 265 389 Q 287 375 316 367 L 349 360 L 367 359 L 368 358 L 388 358 L 389 357 L 424 358 L 425 359 L 445 360 L 446 361 L 449 361 L 449 100 L 443 97 L 425 95 L 424 94 L 416 94 L 415 93 L 380 92 Z M 19 122 L 19 414 L 23 414 L 34 409 L 62 400 L 87 394 L 110 391 L 111 390 L 120 390 L 130 388 L 150 388 L 151 387 L 186 388 L 187 389 L 197 389 L 198 390 L 202 390 L 201 388 L 183 383 L 163 379 L 148 378 L 147 377 L 134 377 L 133 376 L 86 377 L 85 378 L 67 379 L 59 381 Q 50 383 48 379 L 44 374 L 44 123 L 44 122 L 19 122 Z M 468 122 L 468 375 L 467 377 L 461 381 L 439 379 L 438 378 L 428 378 L 427 377 L 412 377 L 411 376 L 380 376 L 379 377 L 357 378 L 334 382 L 310 389 L 310 390 L 326 389 L 327 388 L 346 388 L 347 387 L 383 388 L 384 389 L 402 390 L 421 394 L 426 394 L 451 400 L 476 408 L 490 414 L 493 414 L 493 123 L 493 122 L 468 122 Z " /></svg>