<?xml version="1.0" standalone="no"?>
<!DOCTYPE svg PUBLIC "-//W3C//DTD SVG 20010904//EN"
 "http://www.w3.org/TR/2001/REC-SVG-20010904/DTD/svg10.dtd">
<svg version="1.0" xmlns="http://www.w3.org/2000/svg"
 width="512.000000pt" height="512.000000pt" viewBox="0 0 512.000000 512.000000"
 preserveAspectRatio="xMidYMid meet">

<g transform="translate(0.000000,512.000000) scale(0.100000,-0.100000)"
fill="#000000" stroke="none">
<path d="M2495 5106 c-16 -7 -40 -25 -53 -38 -13 -14 -86 -152 -162 -307 -77
-154 -144 -281 -150 -281 -5 0 -148 -20 -316 -45 -341 -50 -358 -56 -393 -129
-24 -49 -27 -94 -7 -139 12 -28 397 -422 450 -460 20 -14 19 -20 -33 -329 -38
-221 -52 -325 -47 -352 16 -83 113 -146 196 -127 19 5 156 72 303 150 148 77
273 141 279 141 5 0 129 -63 275 -140 146 -77 282 -144 302 -150 39 -10 97 1
136 26 32 21 65 87 65 129 0 20 -23 170 -51 333 l-51 297 220 216 c122 119
230 232 241 250 42 69 15 176 -55 220 -24 15 -108 31 -335 64 -167 25 -309 45
-317 45 -8 0 -71 118 -151 283 -85 174 -149 292 -167 309 -52 48 -119 61 -179
34z"/>
<path d="M1825 2551 c-48 -22 -69 -44 -90 -94 -13 -32 -15 -180 -15 -1247 l0
-1210 840 0 840 0 0 1210 c0 1067 -2 1215 -15 1247 -21 50 -42 72 -90 94 -38
17 -82 19 -735 19 -653 0 -697 -2 -735 -19z"/>
<path d="M139 1877 c-27 -15 -52 -38 -66 -63 l-23 -39 0 -840 c0 -825 0 -841
20 -873 39 -63 26 -62 705 -62 l615 0 0 950 0 950 -603 0 -604 0 -44 -23z"/>
<path d="M3730 615 l0 -615 615 0 c679 0 666 -1 705 62 19 32 20 49 20 538 0
504 0 505 -23 544 -14 25 -39 48 -66 63 l-44 23 -604 0 -603 0 0 -615z"/>
</g>
</svg>
