<?xml version="1.0" standalone="no"?>
<!DOCTYPE svg PUBLIC "-//W3C//DTD SVG 20010904//EN"
 "http://www.w3.org/TR/2001/REC-SVG-20010904/DTD/svg10.dtd">
<svg version="1.0" xmlns="http://www.w3.org/2000/svg"
 width="512.000000pt" height="512.000000pt" viewBox="0 0 512.000000 512.000000"
 preserveAspectRatio="xMidYMid meet">

<g transform="translate(0.000000,512.000000) scale(0.100000,-0.100000)"
fill="#000000" stroke="none">
<path d="M510 5104 c-234 -50 -436 -254 -485 -489 -60 -285 79 -577 336 -703
153 -76 68 -72 1551 -72 l1328 0 -46 42 c-96 88 -180 225 -224 363 -31 99 -39
281 -16 396 32 156 108 299 221 417 l61 62 -1331 -1 c-1098 0 -1341 -3 -1395
-15z m180 -179 c47 -25 64 -79 39 -127 -13 -24 -67 -48 -111 -48 -44 0 -126
-40 -163 -79 -16 -18 -46 -64 -65 -104 -29 -61 -40 -73 -67 -81 -39 -10 -89 7
-104 37 -47 86 77 289 221 362 50 26 149 52 198 54 13 1 36 -6 52 -14z m640 0
c82 -42 60 -153 -33 -170 -20 -4 -99 -5 -176 -3 -136 3 -141 4 -167 29 -46 46
-30 125 31 150 11 4 87 8 168 8 113 1 155 -3 177 -14z"/>
<path d="M3620 5104 c-228 -49 -421 -237 -480 -470 -73 -284 69 -594 330 -723
90 -44 193 -71 273 -71 40 0 54 -5 78 -29 37 -37 38 -79 3 -120 l-26 -31
-1422 0 -1423 0 -37 -87 c-56 -130 -164 -335 -268 -506 -261 -430 -379 -665
-467 -923 -137 -408 -204 -930 -155 -1215 62 -362 305 -686 629 -840 191 -90
92 -83 1284 -87 l1055 -3 -75 52 c-233 164 -386 419 -430 719 -28 192 14 536
96 785 8 25 -108 -98 -177 -187 -73 -94 -127 -111 -178 -56 -26 28 -26 89 0
245 50 290 154 584 295 833 369 651 924 1118 1630 1371 36 13 43 23 91 118 99
196 147 387 148 591 0 110 -3 135 -27 207 -104 313 -425 497 -747 427z m-2522
-2228 c22 -8 69 -33 105 -55 35 -23 75 -41 89 -41 14 0 54 19 89 41 143 93
225 93 368 0 35 -22 75 -41 89 -41 14 0 53 18 86 40 107 69 189 86 274 56 54
-19 247 -150 268 -181 20 -30 12 -84 -15 -109 -10 -9 -34 -19 -52 -22 -30 -5
-48 3 -143 66 -59 39 -120 73 -134 76 -20 4 -43 -5 -92 -37 -90 -58 -120 -69
-192 -69 -68 0 -118 18 -191 69 -71 49 -88 49 -160 3 -88 -58 -127 -72 -199
-72 -70 0 -115 17 -199 74 -30 20 -63 36 -74 36 -11 0 -71 -34 -134 -75 -129
-86 -156 -92 -202 -46 -33 33 -38 74 -13 109 20 28 214 159 262 177 49 18 120
18 170 1z m-283 -637 c22 -6 71 -31 108 -55 37 -24 80 -44 94 -44 15 0 55 19
90 41 141 92 225 92 366 0 35 -22 75 -41 90 -41 14 0 57 20 94 44 99 64 170
79 255 56 46 -13 273 -161 281 -185 4 -9 7 -32 7 -50 0 -40 -47 -85 -88 -85
-17 0 -71 29 -141 75 -62 41 -121 75 -130 75 -9 0 -48 -19 -86 -43 -103 -63
-125 -70 -208 -65 -64 3 -82 8 -128 37 -30 19 -71 44 -91 55 l-38 21 -37 -21
c-21 -11 -62 -36 -92 -55 -47 -30 -64 -34 -131 -37 -84 -4 -100 1 -214 72 -33
20 -67 36 -77 36 -9 0 -68 -34 -130 -75 -91 -60 -122 -75 -152 -75 -68 0 -109
70 -76 131 13 25 239 176 282 188 45 13 105 13 152 0z m-179 -734 c27 -8 76
-33 109 -55 33 -22 72 -40 87 -40 15 0 63 22 108 50 131 79 215 78 344 -5 82
-53 112 -56 169 -16 108 74 193 95 277 68 53 -16 251 -146 274 -179 25 -35 20
-76 -13 -109 -46 -45 -73 -39 -198 43 -73 48 -118 72 -138 72 -19 0 -53 -15
-90 -40 -81 -54 -117 -67 -184 -67 -61 0 -122 22 -193 71 -73 50 -80 50 -173
-7 -140 -86 -219 -87 -352 -6 -40 25 -83 47 -96 50 -18 5 -51 -12 -138 -69
-119 -79 -154 -90 -195 -61 -12 8 -27 28 -34 45 -23 55 -1 83 132 171 156 103
201 115 304 84z"/>
<path d="M4755 3719 c-425 -65 -749 -176 -1073 -367 -388 -230 -737 -586 -990
-1008 -75 -126 -228 -432 -219 -440 2 -3 30 31 61 76 279 398 696 798 1171
1123 271 185 707 421 1030 557 83 34 152 64 154 66 7 7 -71 2 -134 -7z"/>
<path d="M4920 3536 c-600 -245 -1089 -531 -1520 -892 -129 -107 -383 -356
-492 -483 -135 -156 -385 -501 -362 -501 3 0 40 31 82 69 259 234 575 465 897
655 447 264 504 300 725 460 136 99 307 236 440 355 109 96 400 383 400 393 0
13 -8 10 -170 -56z"/>
<path d="M2692 1233 c-19 -90 -34 -298 -28 -378 11 -135 2 -125 122 -125 99 0
105 1 133 28 20 19 34 48 46 95 35 137 132 299 232 387 l46 40 -271 0 -270 0
-10 -47z"/>
<path d="M3658 1270 c-189 -32 -361 -152 -454 -316 -36 -64 -41 -77 -73 -190
-15 -52 -32 -84 -62 -118 -63 -72 -105 -89 -226 -94 l-102 -4 21 -42 c105
-209 330 -384 589 -460 344 -99 649 -30 865 196 130 135 178 246 178 403 -1
112 -22 185 -85 292 -52 89 -200 231 -281 271 -127 62 -249 82 -370 62z"/>
</g>
</svg>
